<svg width="28" height="28" viewBox="0 0 28 28" fill="none" xmlns="http://www.w3.org/2000/svg">
<rect y="4" width="28" height="20" rx="2" fill="white"/>
<mask id="mask0" mask-type="alpha" maskUnits="userSpaceOnUse" x="0" y="4" width="28" height="20">
<rect y="4" width="28" height="20" rx="2" fill="white"/>
</mask>
<g mask="url(#mask0)">
<rect y="4" width="28" height="20" fill="#F1361D"/>
<path fill-rule="evenodd" clip-rule="evenodd" d="M10.0726 7.10076L11.0411 7.26586L11.7674 7.92736L11.9325 6.95891L12.594 6.23258L11.6256 6.06747L10.8992 5.40598L10.7341 6.37442L10.0726 7.10076ZM12.6667 10.488L13.5059 9.97728L14.488 10L13.9773 9.16079L14 8.17863L13.1608 8.68938L12.1786 8.66667L12.6894 9.50588L12.6667 10.488ZM11.5282 15.9709L10.7074 16.5106L10.6958 15.5282L10.1561 14.7074L11.1384 14.6958L11.9593 14.1561L11.9709 15.1384L12.5106 15.9593L11.5282 15.9709ZM12.2411 13.4314L13.2176 13.3232L14.0981 13.7589L13.9899 12.7824L14.4255 11.9019L13.4491 12.0101L12.5686 11.5745L12.6768 12.5509L12.2411 13.4314Z" fill="#FFDC42"/>
<path fill-rule="evenodd" clip-rule="evenodd" d="M6.66663 12.2267L4.31549 13.9027L5.18298 11.1487L2.8624 9.4306L5.74968 9.4046L6.66663 6.66666L7.58357 9.4046L10.4709 9.4306L8.15027 11.1487L9.01777 13.9027L6.66663 12.2267Z" fill="#FFDC42"/>
</g>
</svg>
