<svg width="28" height="28" viewBox="0 0 28 28" fill="none" xmlns="http://www.w3.org/2000/svg">
<rect x="0.25" y="4.25" width="27.5" height="19.5" rx="1.75" fill="white" stroke="#F5F5F5" stroke-width="0.5"/>
<mask id="mask0" mask-type="alpha" maskUnits="userSpaceOnUse" x="0" y="4" width="28" height="20">
<rect x="0.25" y="4.25" width="27.5" height="19.5" rx="1.75" fill="white" stroke="white" stroke-width="0.5"/>
</mask>
<g mask="url(#mask0)">
<path fill-rule="evenodd" clip-rule="evenodd" d="M0 10.6667H28V4H0V10.6667Z" fill="#04AAC8"/>
<path fill-rule="evenodd" clip-rule="evenodd" d="M0 24H28V17.3333H0V24Z" fill="#23C840"/>
<path fill-rule="evenodd" clip-rule="evenodd" d="M4.66663 9.33334C5.0779 9.33334 5.46019 9.20919 5.77805 8.99634C5.74122 8.99877 5.70407 9 5.66663 9C4.74615 9 3.99996 8.25381 3.99996 7.33334C3.99996 6.41286 4.74615 5.66667 5.66663 5.66667C5.70407 5.66667 5.74122 5.6679 5.77805 5.67034C5.46019 5.45748 5.07791 5.33334 4.66663 5.33334C3.56206 5.33334 2.66663 6.22877 2.66663 7.33334C2.66663 8.43791 3.56206 9.33334 4.66663 9.33334ZM7.99996 8.66667C7.99996 9.03486 7.70148 9.33334 7.33329 9.33334C6.9651 9.33334 6.66663 9.03486 6.66663 8.66667C6.66663 8.29848 6.9651 8 7.33329 8C7.70148 8 7.99996 8.29848 7.99996 8.66667ZM9.99996 6.66667C10.3681 6.66667 10.6666 6.36819 10.6666 6C10.6666 5.63181 10.3681 5.33334 9.99996 5.33334C9.63177 5.33334 9.33329 5.63181 9.33329 6C9.33329 6.36819 9.63177 6.66667 9.99996 6.66667ZM13.3333 6C13.3333 6.36819 13.0348 6.66667 12.6666 6.66667C12.2984 6.66667 12 6.36819 12 6C12 5.63181 12.2984 5.33334 12.6666 5.33334C13.0348 5.33334 13.3333 5.63181 13.3333 6ZM12.6666 9.33334C13.0348 9.33334 13.3333 9.03486 13.3333 8.66667C13.3333 8.29848 13.0348 8 12.6666 8C12.2984 8 12 8.29848 12 8.66667C12 9.03486 12.2984 9.33334 12.6666 9.33334ZM10.6666 8.66667C10.6666 9.03486 10.3681 9.33334 9.99996 9.33334C9.63177 9.33334 9.33329 9.03486 9.33329 8.66667C9.33329 8.29848 9.63177 8 9.99996 8C10.3681 8 10.6666 8.29848 10.6666 8.66667Z" fill="white"/>
</g>
</svg>
